<?xml version="1.0" encoding="UTF-8" standalone="no"?>
<!DOCTYPE svg PUBLIC "-//W3C//DTD SVG 1.1//EN"
 "http://www.w3.org/Graphics/SVG/1.1/DTD/svg11.dtd">
<!-- Generated by graphviz version 2.43.0 (0)
 -->
<!-- Title: FiveC_Flow Pages: 1 -->
<svg width="2524pt" height="108pt"
 viewBox="0.00 0.00 2523.62 107.87" xmlns="http://www.w3.org/2000/svg" xmlns:xlink="http://www.w3.org/1999/xlink">
<g id="graph0" class="graph" transform="scale(1 1) rotate(0) translate(4 103.87)">
<title>FiveC_Flow</title>
<polygon fill="white" stroke="transparent" points="-4,4 -4,-103.87 2519.62,-103.87 2519.62,4 -4,4"/>
<!-- A -->
<g id="node1" class="node">
<title>A</title>
<ellipse fill="none" stroke="black" cx="151.44" cy="-26.87" rx="151.37" ry="18"/>
<text text-anchor="middle" x="151.44" y="-23.17" font-family="Times,serif" font-size="14.00">Borrower Submits Application</text>
</g>
<!-- B -->
<g id="node2" class="node">
<title>B</title>
<ellipse fill="none" stroke="black" cx="488.37" cy="-26.87" rx="148.48" ry="26.74"/>
<text text-anchor="middle" x="488.37" y="-30.67" font-family="Times,serif" font-size="14.00">System Extracts Data</text>
<text text-anchor="middle" x="488.37" y="-15.67" font-family="Times,serif" font-size="14.00">(Application Forms + CNA)</text>
</g>
<!-- A&#45;&gt;B -->
<g id="edge1" class="edge">
<title>A&#45;&gt;B</title>
<path fill="none" stroke="black" d="M303.24,-26.87C311.98,-26.87 320.78,-26.87 329.54,-26.87"/>
<polygon fill="black" stroke="black" points="329.8,-30.37 339.8,-26.87 329.8,-23.37 329.8,-30.37"/>
</g>
<!-- C -->
<g id="node3" class="node">
<title>C</title>
<ellipse fill="none" stroke="black" cx="812.3" cy="-26.87" rx="138.38" ry="18"/>
<text text-anchor="middle" x="812.3" y="-23.17" font-family="Times,serif" font-size="14.00">Automated Scoring: Each C</text>
</g>
<!-- B&#45;&gt;C -->
<g id="edge2" class="edge">
<title>B&#45;&gt;C</title>
<path fill="none" stroke="black" d="M637.14,-26.87C646.03,-26.87 654.97,-26.87 663.85,-26.87"/>
<polygon fill="black" stroke="black" points="663.86,-30.37 673.86,-26.87 663.86,-23.37 663.86,-30.37"/>
</g>
<!-- D -->
<g id="node4" class="node">
<title>D</title>
<polygon fill="none" stroke="black" points="1132.04,-44.87 987.93,-26.87 1132.04,-8.87 1276.16,-26.87 1132.04,-44.87"/>
<text text-anchor="middle" x="1132.04" y="-23.17" font-family="Times,serif" font-size="14.00">Score &lt; Threshold?</text>
</g>
<!-- C&#45;&gt;D -->
<g id="edge3" class="edge">
<title>C&#45;&gt;D</title>
<path fill="none" stroke="black" d="M950.82,-26.87C959.71,-26.87 968.7,-26.87 977.66,-26.87"/>
<polygon fill="black" stroke="black" points="977.77,-30.37 987.77,-26.87 977.77,-23.37 977.77,-30.37"/>
</g>
<!-- E -->
<g id="node5" class="node">
<title>E</title>
<ellipse fill="none" stroke="black" cx="1469.94" cy="-56.87" rx="132.68" ry="18"/>
<text text-anchor="middle" x="1469.94" y="-53.17" font-family="Times,serif" font-size="14.00">Manual Review (Override)</text>
</g>
<!-- D&#45;&gt;E -->
<g id="edge4" class="edge">
<title>D&#45;&gt;E</title>
<path fill="none" stroke="black" d="M1216.5,-34.32C1256.34,-37.88 1304.75,-42.21 1348.48,-46.11"/>
<polygon fill="black" stroke="black" points="1348.34,-49.61 1358.61,-47.02 1348.96,-42.64 1348.34,-49.61"/>
<text text-anchor="middle" x="1306.85" y="-45.67" font-family="Times,serif" font-size="14.00">Yes</text>
</g>
<!-- G -->
<g id="node7" class="node">
<title>G</title>
<ellipse fill="none" stroke="black" cx="2145.2" cy="-18.87" rx="95.58" ry="18"/>
<text text-anchor="middle" x="2145.2" y="-15.17" font-family="Times,serif" font-size="14.00">Proceed to Next C</text>
</g>
<!-- D&#45;&gt;G -->
<g id="edge5" class="edge">
<title>D&#45;&gt;G</title>
<path fill="none" stroke="black" d="M1267.84,-25.8C1471.8,-24.19 1854.57,-21.16 2039.25,-19.7"/>
<polygon fill="black" stroke="black" points="2039.53,-23.2 2049.51,-19.62 2039.48,-16.2 2039.53,-23.2"/>
<text text-anchor="middle" x="1631.03" y="-27.67" font-family="Times,serif" font-size="14.00">No</text>
</g>
<!-- F -->
<g id="node6" class="node">
<title>F</title>
<polygon fill="none" stroke="black" points="1806.59,-74.87 1659.46,-56.87 1806.59,-38.87 1953.72,-56.87 1806.59,-74.87"/>
<text text-anchor="middle" x="1806.59" y="-53.17" font-family="Times,serif" font-size="14.00">Override Approved?</text>
</g>
<!-- E&#45;&gt;F -->
<g id="edge6" class="edge">
<title>E&#45;&gt;F</title>
<path fill="none" stroke="black" d="M1602.72,-56.87C1617.95,-56.87 1633.59,-56.87 1649.11,-56.87"/>
<polygon fill="black" stroke="black" points="1649.28,-60.37 1659.28,-56.87 1649.28,-53.37 1649.28,-60.37"/>
</g>
<!-- F&#45;&gt;G -->
<g id="edge7" class="edge">
<title>F&#45;&gt;G</title>
<path fill="none" stroke="black" d="M1883.97,-48.25C1934.08,-42.59 1999.88,-35.16 2052.77,-29.19"/>
<polygon fill="black" stroke="black" points="2053.29,-32.66 2062.83,-28.06 2052.5,-25.7 2053.29,-32.66"/>
<text text-anchor="middle" x="2001.66" y="-41.67" font-family="Times,serif" font-size="14.00">Approve</text>
</g>
<!-- I -->
<g id="node9" class="node">
<title>I</title>
<ellipse fill="none" stroke="black" cx="2145.2" cy="-81.87" rx="94.78" ry="18"/>
<text text-anchor="middle" x="2145.2" y="-78.17" font-family="Times,serif" font-size="14.00">Reject Application</text>
</g>
<!-- F&#45;&gt;I -->
<g id="edge8" class="edge">
<title>F&#45;&gt;I</title>
<path fill="none" stroke="black" d="M1898.68,-63.64C1944.39,-67.03 1999.8,-71.15 2046.41,-74.61"/>
<polygon fill="black" stroke="black" points="2046.29,-78.11 2056.52,-75.36 2046.81,-71.13 2046.29,-78.11"/>
<text text-anchor="middle" x="2001.66" y="-76.67" font-family="Times,serif" font-size="14.00">Reject</text>
</g>
<!-- H -->
<g id="node8" class="node">
<title>H</title>
<ellipse fill="none" stroke="black" cx="2396.68" cy="-18.87" rx="118.88" ry="18"/>
<text text-anchor="middle" x="2396.68" y="-15.17" font-family="Times,serif" font-size="14.00">Final Lending Outcome</text>
</g>
<!-- G&#45;&gt;H -->
<g id="edge9" class="edge">
<title>G&#45;&gt;H</title>
<path fill="none" stroke="black" d="M2240.87,-18.87C2249.58,-18.87 2258.51,-18.87 2267.45,-18.87"/>
<polygon fill="black" stroke="black" points="2267.55,-22.37 2277.55,-18.87 2267.55,-15.37 2267.55,-22.37"/>
</g>
</g>
</svg>
