<svg xmlns="http://www.w3.org/2000/svg" xmlns:xlink="http://www.w3.org/1999/xlink" xmlns:lucid="lucid" width="2261.5" height="641"><g transform="translate(1401 780.5)" lucid:page-tab-id="0_0"><path d="M-1500-1000h2500V0h-2500z" fill="#fff"/><path d="M-1107.8-460v-314a6 6 0 0 1 6-6h34v320z" stroke="#3a414a" fill="#cfe4ff"/><path d="M-1067.8-140h-34a6 6 0 0 1-6-6v-314h40z" stroke="#3a414a" fill="#dfe3e8"/><path d="M-1067.8-780H854a6 6 0 0 1 6 6v314h-1927.8zM860-460v314a6 6 0 0 1-6 6h-1921.8v-320z" stroke="#3a414a" fill="none"/><use xlink:href="#a" transform="matrix(-1.8369701987210297e-16,-1,1,-1.8369701987210297e-16,-1107.79988396921,-460) translate(109.92773437500001 28.017903645833332)"/><use xlink:href="#b" transform="matrix(-1.8369701987210297e-16,-1,1,-1.8369701987210297e-16,-1107.79988396921,-140) translate(126.71435546875 28.017903645833332)"/><path d="M-1000-672a8 8 0 0 1 8-8h144.37a8 8 0 0 1 8 8v104a8 8 0 0 1-8 8H-992a8 8 0 0 1-8-8z" stroke="#000" stroke-width="2" fill="#cfe4ff"/><use xlink:href="#c" transform="matrix(1,0,0,1,-994.439,-674.439) translate(23.590764322916662 50.978833333333334)"/><use xlink:href="#d" transform="matrix(1,0,0,1,-994.439,-674.439) translate(12.17767838541667 75.98469270833334)"/><path d="M-740-672a8 8 0 0 1 8-8h144.37a8 8 0 0 1 8 8v104a8 8 0 0 1-8 8H-732a8 8 0 0 1-8-8z" stroke="#000" stroke-width="2" fill="#cfe4ff"/><use xlink:href="#e" transform="matrix(1,0,0,1,-734.439,-674.439) translate(2.6617278645833267 27.135083333333334)"/><use xlink:href="#f" transform="matrix(1,0,0,1,-734.439,-674.439) translate(55.53933203125 27.135083333333334)"/><use xlink:href="#g" transform="matrix(1,0,0,1,-734.439,-674.439) translate(16.067815104166655 52.14094270833334)"/><use xlink:href="#h" transform="matrix(1,0,0,1,-734.439,-674.439) translate(58.34971614583333 52.14094270833334)"/><use xlink:href="#i" transform="matrix(1,0,0,1,-734.439,-674.439) translate(21.214299479166662 77.14680208333334)"/><use xlink:href="#j" transform="matrix(1,0,0,1,-734.439,-674.439) translate(12.929468750000005 102.15266145833334)"/><path d="M-838.13-620h80.75" stroke="#3a414a" fill="none"/><path d="M-838.1-619.52h-.53v-.96h.52z" stroke="#3a414a" stroke-width=".05" fill="#3a414a"/><path d="M-742.62-620l-14.26 4.63v-9.26z" stroke="#3a414a" fill="#3a414a"/><path d="M-460-670.64a8 8 0 0 1 8-8h144.37a8 8 0 0 1 8 8v104a8 8 0 0 1-8 8H-452a8 8 0 0 1-8-8z" stroke="#000" stroke-width="2" fill="#cfe4ff"/><use xlink:href="#k" transform="matrix(1,0,0,1,-454.439,-673.079) translate(18.282821614583334 27.135083333333334)"/><use xlink:href="#l" transform="matrix(1,0,0,1,-454.439,-673.079) translate(19.296981770833334 52.14094270833334)"/><use xlink:href="#m" transform="matrix(1,0,0,1,-454.439,-673.079) translate(1.879664062499998 77.14680208333334)"/><use xlink:href="#n" transform="matrix(1,0,0,1,-454.439,-673.079) translate(111.27777604166667 77.14680208333334)"/><use xlink:href="#o" transform="matrix(1,0,0,1,-454.439,-673.079) translate(44.97894791666666 102.15266145833334)"/><path d="M-578.13-620h100.75" stroke="#3a414a" fill="none"/><path d="M-578.1-619.52h-.53v-.96h.52z" stroke="#3a414a" stroke-width=".05" fill="#3a414a"/><path d="M-462.62-620l-14.26 4.63v-9.26z" stroke="#3a414a" fill="#3a414a"/><path d="M-880-352a8 8 0 0 1 8-8h144.37a8 8 0 0 1 8 8v104a8 8 0 0 1-8 8H-872a8 8 0 0 1-8-8z" stroke="#000" stroke-width="2" fill="#dfe3e8"/><use xlink:href="#p" transform="matrix(1,0,0,1,-874.439,-354.439) translate(12.823511718750005 50.978833333333334)"/><use xlink:href="#q" transform="matrix(1,0,0,1,-874.439,-354.439) translate(35.14512630208333 75.98469270833334)"/><path d="M-799.34-377.38h-.95v-5.18h.96zm0-10.36h-.95v-10.36h.96zm0-15.54h-.95v-10.36h.96zm10.56-26.25h-5l-.9.07-.84.2-.8.34-.74.45-.66.56-.56.65-.45.74-.34.8-.2.84-.07.88v5.16h-.95v-5.2l.1-1 .23-.98.4-.94.52-.87.66-.78.78-.66.87-.53.94-.4.97-.23 1-.08h5.05zm409.44-6.45l-.08 1-.23.98-.4.94-.52.87-.66.78-.78.66-.87.53-.94.4-1 .23-1 .08h-5.05v-.96h5.02l.88-.06.84-.2.8-.34.73-.45.66-.56.56-.65.45-.74.34-.8.2-.84.07-.88v-5.03h.96zm-16.55 6.46h-10.06v-.96h10.07zm-15.1 0h-10.07v-.96H-411zm-15.1 0h-10.08v-.96h10.07zm-15.12 0h-10.07v-.96h10.08zm-15.1 0h-10.1v-.96h10.1zm-15.12 0h-10.08v-.96h10.08zm-226.67 0h-10.08v-.96h10.07zm-15.12 0h-10.07v-.96h10.08zm-15.1 0h-10.1v-.96h10.1zm-15.12 0h-10.08v-.96h10.08zm-15.1 0h-10.1v-.96h10.1zm-15.13 0h-10.07v-.96h10.08zm287.12 0h-5.55v-.96h5.55zm107.2-16.58h-.94v-10.1h.96zm0-15.14h-.94v-10.1h.96zm0-15.14h-.94v-10.1h.96zm0-15.14h-.94v-10.1h.96zm0-15.15h-.94v-10.1h.96zm0-15.14h-.94v-10.1h.96zm0-15.15h-.94v-10.1h.96zm0-15.14h-.94v-5.04h.96z" stroke="#3a414a" stroke-width=".05" fill="#3a414a"/><path d="M-379.34-557.13h-.95v-.5h.96z" fill="#3a414a"/><path stroke="#3a414a" stroke-width=".05" fill="#3a414a"/><path d="M-799.8-362.62l-4.65-14.26h9.27z" fill="#3a414a"/><path d="M-799.8-361.08l-5.3-16.28h10.58zm-4-15.33l4 12.25 3.97-12.26z" stroke="#3a414a" stroke-width=".05" fill="#3a414a"/><use xlink:href="#r" transform="matrix(1,0,0,1,-693.6023023486516,-440.7552083333333) translate(0 17.22222222222222)"/><use xlink:href="#s" transform="matrix(1,0,0,1,-693.6023023486516,-440.7552083333333) translate(105.078125 17.22222222222222)"/><use xlink:href="#t" transform="matrix(1,0,0,1,-693.6023023486516,-440.7552083333333) translate(116.18923611111111 17.22222222222222)"/><use xlink:href="#u" transform="matrix(1,0,0,1,-693.6023023486516,-440.7552083333333) translate(160.47743055555554 17.22222222222222)"/><path d="M-579.63-361.93a8 8 0 0 1 8-8H-388a8 8 0 0 1 8 8v123.86a8 8 0 0 1-8 8h-183.63a8 8 0 0 1-8-8z" stroke="#000" stroke-width="2" fill="#dfe3e8"/><use xlink:href="#v" transform="matrix(1,0,0,1,-574.0649140630777,-364.3686484375) translate(6.924097656249998 47.916333333333334)"/><use xlink:href="#w" transform="matrix(1,0,0,1,-574.0649140630777,-364.3686484375) translate(79.30788671875 47.916333333333334)"/><use xlink:href="#x" transform="matrix(1,0,0,1,-574.0649140630777,-364.3686484375) translate(34.81097916666667 72.92219270833334)"/><use xlink:href="#y" transform="matrix(1,0,0,1,-574.0649140630777,-364.3686484375) translate(11.253199218749998 97.92805208333334)"/><use xlink:href="#z" transform="matrix(1,0,0,1,-574.0649140630777,-364.3686484375) translate(89.31830338541667 97.92805208333334)"/><path d="M-718.13-300H-597" stroke="#3a414a" fill="none"/><path d="M-718.1-299.52h-.53v-.96h.52z" stroke="#3a414a" stroke-width=".05" fill="#3a414a"/><path d="M-582.24-300l-14.27 4.63v-9.26z" stroke="#3a414a" fill="#3a414a"/><path d="M-144.8-356.4a8 8 0 0 1 9.6 0l70.4 52.8a4.5 4.5 0 0 1 0 7.2l-70.4 52.8a8 8 0 0 1-9.6 0l-70.4-52.8a4.5 4.5 0 0 1 0-7.2z" stroke="#000" stroke-width="2" fill="#fff"/><use xlink:href="#A" transform="matrix(1,0,0,1,-215,-355) translate(47.021059027777774 62.77777777777778)"/><path d="M-378.5-300h144.1" stroke="#3a414a" fill="none"/><path d="M-378.5-299.52h-.5v-.96h.5z" stroke="#3a414a" stroke-width=".05" fill="#3a414a"/><path d="M-219.62-300l-14.27 4.63v-9.26z" stroke="#3a414a" fill="#3a414a"/><path d="M100-445.84a8 8 0 0 1 8-8h204a8 8 0 0 1 8 8v131.68a8 8 0 0 1-8 8H108a8 8 0 0 1-8-8z" stroke="#000" stroke-width="2" fill="#dfe3e8"/><use xlink:href="#B" transform="matrix(1,0,0,1,112,-441.84244791666663) translate(13.272352430555557 52.52777777777778)"/><use xlink:href="#C" transform="matrix(1,0,0,1,112,-441.84244791666663) translate(68.37217881944444 52.52777777777778)"/><use xlink:href="#D" transform="matrix(1,0,0,1,112,-441.84244791666663) translate(162.35004340277777 52.52777777777778)"/><use xlink:href="#E" transform="matrix(1,0,0,1,112,-441.84244791666663) translate(24.81206597222223 84.79340277777777)"/><use xlink:href="#F" transform="matrix(1,0,0,1,112,-441.84244791666663) translate(80.55208333333334 84.79340277777777)"/><path d="M100-272a8 8 0 0 1 8-8h204a8 8 0 0 1 8 8v104a8 8 0 0 1-8 8H108a8 8 0 0 1-8-8z" stroke="#000" stroke-width="2" fill="#dfe3e8"/><use xlink:href="#G" transform="matrix(1,0,0,1,112,-268) translate(18.979817708333343 39.52777777777778)"/><use xlink:href="#H" transform="matrix(1,0,0,1,112,-268) translate(101.91167534722223 39.52777777777778)"/><use xlink:href="#I" transform="matrix(1,0,0,1,112,-268) translate(51.19010416666667 71.79340277777777)"/><path d="M19.48-305.96l-.1 1.05-.24 1.06-.42 1-.57.94-.7.83-.85.7-.93.6-1 .4-1.08.26-1.06.08H-61v-1.96h73.46l.83-.06.75-.18.73-.3.67-.42.6-.5.52-.6.4-.68.3-.73.2-.76.06-.84v-23.2h1.95zm61.02-73.06H24.54l-.82.06-.77.18-.73.3-.67.42-.6.5-.5.6-.42.68-.3.73-.2.76-.05.84v23.2h-1.95v-23.28l.08-1.05.27-1.06.4-1 .6-.94.7-.83.83-.7.93-.6 1.02-.4 1.06-.26 1.06-.08H80.5z" stroke="#008a0e" stroke-width=".05" fill="#008a0e"/><path d="M-60.97-299.02h-1.12l.1-.98-.1-.98h1.13z" fill="#008a0e"/><path stroke="#008a0e" stroke-width=".05" fill="#008a0e"/><path d="M95.76-380l-14.26 4.63v-9.26z" fill="#008a0e"/><path d="M98.92-380l-18.4 5.98v-11.96zm-16.45 3.3L92.6-380l-10.13-3.3z" stroke="#008a0e" stroke-width=".05" fill="#008a0e"/><use xlink:href="#J" transform="matrix(1,0,0,1,2.7035503560200347,-350.7552083333333) translate(0 17.22222222222222)"/><path d="M19.48-226.04l.06.83.2.75.3.73.4.67.5.6.6.5.68.42.73.3.77.2.82.06H80.5v1.94H24.46l-1.05-.08-1.05-.26-1.02-.42-.93-.57-.83-.72-.7-.83-.6-.93-.4-1-.26-1.08-.07-1.06v-23.28h1.95zm-5.9-74.85l1.08.26 1 .42.94.58.84.7.7.84.58.93.42 1 .25 1.08.08 1.06v23.3h-1.95v-23.22l-.07-.83-.18-.75-.3-.73-.4-.67-.53-.6-.6-.5-.67-.43-.73-.3-.76-.18-.84-.06H-61v-1.96h73.54z" stroke="#e81313" stroke-width=".05" fill="#e81313"/><path d="M-60.97-299.02h-1.12l.1-.98-.1-.98h1.13z" fill="#e81313"/><path stroke="#e81313" stroke-width=".05" fill="#e81313"/><path d="M95.76-220l-14.26 4.63v-9.26z" fill="#e81313"/><path d="M98.92-220l-18.4 5.98v-11.96zm-16.45 3.3L92.6-220l-10.13-3.3z" stroke="#e81313" stroke-width=".05" fill="#e81313"/><use xlink:href="#K" transform="matrix(1,0,0,1,6.275598967131103,-270.7552083333333) translate(0 17.22222222222222)"/><path d="M580-420c22.1 0 40 17.9 40 40s-17.9 40-40 40h-80c-22.1 0-40-17.9-40-40s17.9-40 40-40z" stroke="#000" stroke-width="2" fill="#54c45e"/><use xlink:href="#L" transform="matrix(1,0,0,1,465,-415) translate(49.934895833333336 43.40277777777778)"/><path d="M321.5-380h121.12" stroke="#3a414a" fill="none"/><path d="M321.5-379.52h-.5v-.96h.5z" stroke="#3a414a" stroke-width=".05" fill="#3a414a"/><path d="M457.38-380l-14.26 4.63v-9.26z" stroke="#3a414a" fill="#3a414a"/><path d="M460-672a8 8 0 0 1 8-8h144a8 8 0 0 1 8 8v104a8 8 0 0 1-8 8H468a8 8 0 0 1-8-8z" stroke="#000" stroke-width="2" fill="#cfe4ff"/><use xlink:href="#M" transform="matrix(1,0,0,1,472,-668) translate(29.659071180555557 39.52777777777778)"/><use xlink:href="#N" transform="matrix(1,0,0,1,472,-668) translate(30.44574652777778 71.79340277777777)"/><path d="M321.5-220H724a6 6 0 0 0 6-6v-388a6 6 0 0 0-6-6h-86.62" stroke="#3a414a" fill="none"/><path d="M321.5-219.53h-.5v-.94h.5z" stroke="#3a414a" stroke-width=".05" fill="#3a414a"/><path d="M622.62-620l14.26-4.63v9.26z" stroke="#3a414a" fill="#3a414a"/><path d="M295.2-676.4a8 8 0 0 1 9.6 0l70.4 52.8a4.5 4.5 0 0 1 0 7.2l-70.4 52.8a8 8 0 0 1-9.6 0l-70.4-52.8a4.5 4.5 0 0 1 0-7.2z" stroke="#000" stroke-width="2" fill="#fff"/><use xlink:href="#O" transform="matrix(1,0,0,1,225,-675) translate(29.68707465277778 62.77777777777778)"/><path d="M458.5-620h-64.1" stroke="#3a414a" fill="none"/><path d="M459-619.52h-.5v-.96h.5z" stroke="#3a414a" stroke-width=".05" fill="#3a414a"/><path d="M379.62-620l14.27-4.63v9.26z" stroke="#3a414a" fill="#3a414a"/><path d="M20-740c22.1 0 40 17.9 40 40s-17.9 40-40 40h-80c-22.1 0-40-17.9-40-40s17.9-40 40-40z" stroke="#000" stroke-width="2" fill="#54c45e"/><use xlink:href="#L" transform="matrix(1,0,0,1,-95,-735) translate(49.934895833333336 43.40277777777778)"/><path d="M20-600c22.1 0 40 17.9 40 40s-17.9 40-40 40h-80c-22.1 0-40-17.9-40-40s17.9-40 40-40z" stroke="#000" stroke-width="2" fill="#fe7070"/><use xlink:href="#P" transform="matrix(1,0,0,1,-95,-595) translate(35.73133680555556 43.40277777777778)"/><path d="M141.97-626.02l.07.88.2.85.34.8.45.75.56.66.65.57.74.45.8.33.83.2.9.07h73.97v.96h-74.02l-1-.08-.98-.24-.94-.4-.87-.52-.78-.66-.66-.77-.53-.86-.4-.94-.23-1-.08-.98v-23.26h.95zm-5.46-74.38l1 .24.94.4.87.52.78.66.66.77.53.86.4.94.23 1 .07.98v23.26h-.95v-23.22l-.07-.88-.2-.85-.33-.8-.45-.75-.57-.66-.66-.57-.73-.45-.8-.33-.84-.2-.88-.07h-58.1v-.96h58.14z" stroke="#3a414a" stroke-width=".05" fill="#3a414a"/><path d="M222-620l.04.48h-.56v-.96h.56z" fill="#3a414a"/><path stroke="#3a414a" stroke-width=".05" fill="#3a414a"/><path d="M76.89-695.37L62.6-700l14.27-4.63z" fill="#3a414a"/><path d="M77.36-694.7L61.08-700l16.28-5.3zm-13.2-5.3l12.25 3.98v-7.96z" stroke="#3a414a" stroke-width=".05" fill="#3a414a"/><g><use xlink:href="#Q" transform="matrix(1,0,0,1,104.49730733715732,-670.7552083333334) translate(0 17.22222222222222)"/></g><path d="M141.97-565.98l-.07 1-.24.98-.4.94-.52.87-.66.78-.78.66-.86.53-.94.4-1 .23-.98.08H77.38v-.96h58.1l.88-.06.84-.2.8-.34.75-.45.65-.56.57-.65.45-.74.33-.8.2-.84.07-.88v-13.23h.95zm79.53-53.54h-73.98l-.9.06-.83.2-.8.34-.75.45-.66.56-.57.65-.45.74-.34.8-.2.84-.07.88v13.23h-.95v-13.27l.08-1 .24-.98.4-.94.52-.87.66-.78.77-.66.86-.53.94-.4 1-.23.98-.08h74.02z" stroke="#3a414a" stroke-width=".05" fill="#3a414a"/><path d="M222-620l.04.48h-.56v-.96h.56z" fill="#3a414a"/><path stroke="#3a414a" stroke-width=".05" fill="#3a414a"/><path d="M76.89-555.37L62.6-560l14.27-4.63z" fill="#3a414a"/><path d="M77.36-554.7L61.08-560l16.28-5.3zm-13.2-5.3l12.25 3.98v-7.96z" stroke="#3a414a" stroke-width=".05" fill="#3a414a"/><g><use xlink:href="#R" transform="matrix(1,0,0,1,114.28463372604621,-600.7552083333334) translate(0 17.22222222222222)"/></g><path d="M-1400-748a12 12 0 0 1 12-12h216a12 12 0 0 1 12 12v237.78a12 12 0 0 1-12 12h-216a12 12 0 0 1-12-12z" stroke="#dfe3e8" stroke-width="2" fill="#fff"/><path d="M-1366-698.5a1 1 0 0 1 1-1h18a1 1 0 0 1 1 1v13a1 1 0 0 1-1 1h-18a1 1 0 0 1-1-1z" stroke="#000" stroke-width="1.05" fill="#cfe4ff"/><path d="M-1366-666.5a1 1 0 0 1 1-1h18a1 1 0 0 1 1 1v13a1 1 0 0 1-1 1h-18a1 1 0 0 1-1-1z" stroke="#000" stroke-width="1.05" fill="#dfe3e8"/><path d="M-1356.6-635.05a1 1 0 0 1 1.2 0l8.8 6.6a.56.56 0 0 1 0 .9l-8.8 6.6a1 1 0 0 1-1.2 0l-8.8-6.6a.56.56 0 0 1 0-.9z" stroke="#000" stroke-width="1.05" fill="#fff"/><path d="M-1351-601c2.76 0 5 2.24 5 5s-2.24 5-5 5h-10c-2.76 0-5-2.24-5-5s2.24-5 5-5z" stroke="#000" stroke-width="1.05" fill="#54c45e"/><path d="M-1351-569c2.76 0 5 2.24 5 5s-2.24 5-5 5h-10c-2.76 0-5-2.24-5-5s2.24-5 5-5z" stroke="#000" stroke-width="1.05" fill="#fe7070"/><path d="M-1368-531.88v-.12a12 12 0 0 1 12-12 12 12 0 0 1 12 12 12 12 0 0 1-12 12 12 12 0 0 1-12-12v-.12" stroke="#000" stroke-opacity=".25" fill="#f2f3f5"/><g><use xlink:href="#S" transform="matrix(1,0,0,1,-1368,-736) translate(0 18.5478515625)"/><use xlink:href="#T" transform="matrix(1,0,0,1,-1368,-736) translate(77.923828125 18.5478515625)"/></g><g><use xlink:href="#U" transform="matrix(1,0,0,1,-1332,-704) translate(0 17.0927734375)"/><use xlink:href="#V" transform="matrix(1,0,0,1,-1332,-704) translate(35.24609375 17.0927734375)"/><use xlink:href="#W" transform="matrix(1,0,0,1,-1332,-704) translate(44.228515625 17.0927734375)"/><use xlink:href="#X" transform="matrix(1,0,0,1,-1332,-704) translate(80.048828125 17.0927734375)"/></g><g><use xlink:href="#Y" transform="matrix(1,0,0,1,-1332,-672) translate(0 17.0927734375)"/><use xlink:href="#Z" transform="matrix(1,0,0,1,-1332,-672) translate(49.0341796875 17.0927734375)"/></g><g><use xlink:href="#aa" transform="matrix(1,0,0,1,-1332,-640) translate(0 17.0927734375)"/></g><g><use xlink:href="#ab" transform="matrix(1,0,0,1,-1332,-608) translate(0 17.0927734375)"/><use xlink:href="#ac" transform="matrix(1,0,0,1,-1332,-608) translate(35.51953125 17.0927734375)"/><use xlink:href="#ad" transform="matrix(1,0,0,1,-1332,-608) translate(45.896484375 17.0927734375)"/></g><g><use xlink:href="#ae" transform="matrix(1,0,0,1,-1332,-576) translate(0 17.0927734375)"/><use xlink:href="#ac" transform="matrix(1,0,0,1,-1332,-576) translate(53.416015625 17.0927734375)"/><use xlink:href="#ad" transform="matrix(1,0,0,1,-1332,-576) translate(63.79296875 17.0927734375)"/></g><g><use xlink:href="#af" transform="matrix(1,0,0,1,-1332,-544) translate(0 17.0927734375)"/><use xlink:href="#ag" transform="matrix(1,0,0,1,-1332,-544) translate(55.302734375 17.0927734375)"/><use xlink:href="#ah" transform="matrix(1,0,0,1,-1332,-544) translate(82.3662109375 17.0927734375)"/></g><defs><path d="M657 26c-323 0-524-166-541-416h195c15 169 171 246 346 246 202 0 356-106 356-265 5-203-294-238-475-293-239-73-380-191-380-389 0-252 224-419 512-419 294 0 499 171 508 396H992c-17-145-151-228-328-228-193 0-321 102-321 242 0 156 175 211 284 241l149 41c160 44 422 134 422 412 0 244-197 432-541 432" id="ai"/><path d="M598-1118v154H368v674c0 100 37 144 132 144 23 0 62-6 92-12L629-6c-37 13-88 20-134 20-193 0-307-107-307-290v-688H20v-154h168v-266h180v266h230" id="aj"/><path d="M471 26C259 26 90-98 90-318c0-256 228-303 435-329 202-27 287-16 287-108 0-139-79-219-234-219-161 0-248 86-283 164l-173-57c86-203 278-265 451-265 150 0 419 46 419 395V0H815v-152h-12C765-73 660 26 471 26zm31-159c199 0 310-134 310-271v-155c-30 35-226 55-295 64-131 17-246 59-246 186 0 116 97 176 231 176" id="ak"/><path d="M678-1118v154H420V0H240v-964H20v-154h220v-149c0-194 155-293 318-293 85 0 141 18 168 30l-50 154c-19-6-47-17-97-17-111 0-159 58-159 166v109h258" id="al"/><path d="M692-1560L212 224H46l480-1784h166" id="am"/><path d="M783 20c-382 0-661-292-661-764 0-473 279-766 661-766 302 0 548 182 601 489h-190c-42-204-217-313-411-313-268 0-476 208-476 590 0 381 209 588 476 588 195 0 369-110 411-313h190c-52 303-296 489-601 489" id="an"/><path d="M180 0v-1490h510c348 0 508 194 508 460 0 198-88 351-276 417L1256 0h-220L726-579c-117 2-238 0-356 1V0H180zm190-747h312c235 0 327-108 327-283 0-177-92-293-329-293H370v576" id="ao"/><path d="M180 0v-1490h270l367 940c28 72 75 218 110 339 35-117 81-264 110-339l362-940h271V0h-187c2-448-5-837 7-1287-157 497-311 829-483 1287H842C666-458 514-784 354-1284c12 438 5 843 7 1284H180" id="ap"/><g id="a"><use transform="matrix(0.010091145833333332,0,0,0.010091145833333332,0,0)" xlink:href="#ai"/><use transform="matrix(0.010091145833333332,0,0,0.010091145833333332,13.259765624999998,0)" xlink:href="#aj"/><use transform="matrix(0.010091145833333332,0,0,0.010091145833333332,20.121744791666664,0)" xlink:href="#ak"/><use transform="matrix(0.010091145833333332,0,0,0.010091145833333332,31.726562499999996,0)" xlink:href="#al"/><use transform="matrix(0.010091145833333332,0,0,0.010091145833333332,38.56835937499999,0)" xlink:href="#al"/><use transform="matrix(0.010091145833333332,0,0,0.010091145833333332,45.63216145833332,0)" xlink:href="#am"/><use transform="matrix(0.010091145833333332,0,0,0.010091145833333332,53.07942708333332,0)" xlink:href="#an"/><use transform="matrix(0.010091145833333332,0,0,0.010091145833333332,68.17578124999999,0)" xlink:href="#ao"/><use transform="matrix(0.010091145833333332,0,0,0.010091145833333332,81.47591145833331,0)" xlink:href="#ap"/></g><path d="M180 0v-1490h908v168H370v486h669v168H370v500h727V0H180" id="aq"/><path d="M338-670V0H158v-1118h173l1 207c72-158 192-221 342-221 226 0 378 139 378 422V0H872v-695c0-172-96-275-252-275-161 0-282 109-282 300" id="ar"/><path d="M611 442c-248 0-391-105-460-228l146-94c47 65 117 165 314 165 178 0 307-82 307-266v-224h-17C863-141 792-18 576-18c-268 0-472-195-472-546 0-346 197-568 476-568 216 0 288 133 326 193h17v-179h175V29c0 289-215 413-487 413zm-5-620c203 0 314-146 314-390 0-237-108-403-314-403-213 0-319 180-319 403 0 230 109 390 319 390" id="as"/><path d="M158 0v-1118h180V0H158zm91-1301c-68 0-125-53-125-119s57-119 125-119c69 0 126 53 126 119s-57 119-126 119" id="at"/><path d="M628 24c-324 0-524-230-524-574 0-343 198-582 503-582 237 0 487 146 487 559v75H286c9 234 145 362 343 362 132 0 231-58 273-172l174 48C1024-91 857 24 628 24zM287-650h624c-17-190-120-322-304-322-192 0-309 151-320 322" id="au"/><g id="b"><use transform="matrix(0.010091145833333332,0,0,0.010091145833333332,0,0)" xlink:href="#aq"/><use transform="matrix(0.010091145833333332,0,0,0.010091145833333332,12.422200520833332,0)" xlink:href="#ar"/><use transform="matrix(0.010091145833333332,0,0,0.010091145833333332,24.632486979166664,0)" xlink:href="#as"/><use transform="matrix(0.010091145833333332,0,0,0.010091145833333332,37.30696614583333,0)" xlink:href="#at"/><use transform="matrix(0.010091145833333332,0,0,0.010091145833333332,42.312174479166664,0)" xlink:href="#ar"/><use transform="matrix(0.010091145833333332,0,0,0.010091145833333332,54.5224609375,0)" xlink:href="#au"/></g><path d="M180 0v-1490h528c311 0 458 177 458 395 0 191-114 278-244 313v14c139 9 302 137 302 371 0 225-148 397-499 397H180zm190-168h350c232 0 321-102 321-231 0-149-120-277-311-277H370v508zm0-668h328c160 0 286-101 286-255 0-129-87-231-280-231H370v486" id="av"/><path d="M613 24c-304 0-509-231-509-576 0-350 205-580 509-580 305 0 511 230 511 580 0 345-206 576-511 576zm0-161c226 0 329-195 329-415 0-222-103-419-329-419-223 0-326 196-326 419 0 220 103 415 326 415" id="aw"/><path d="M158 0v-1118h174v172h12c41-113 157-188 290-188 26 0 70 2 91 3v181c-11-2-60-10-108-10-161 0-279 109-279 260V0H158" id="ax"/><path d="M409 0L70-1118h191c89 329 165 560 243 925 75-353 154-601 240-925h192c85 325 161 564 235 922 77-354 157-598 244-922h191L1267 0h-179c-86-307-176-590-250-913C763-588 675-308 588 0H409" id="ay"/><g id="c"><use transform="matrix(0.010091145833333334,0,0,0.010091145833333334,0,0)" xlink:href="#av"/><use transform="matrix(0.010091145833333334,0,0,0.010091145833333334,13.522135416666668,0)" xlink:href="#aw"/><use transform="matrix(0.010091145833333334,0,0,0.010091145833333334,25.9140625,0)" xlink:href="#ax"/><use transform="matrix(0.010091145833333334,0,0,0.010091145833333334,34.01725260416667,0)" xlink:href="#ax"/><use transform="matrix(0.010091145833333334,0,0,0.010091145833333334,41.454427083333336,0)" xlink:href="#aw"/><use transform="matrix(0.010091145833333334,0,0,0.010091145833333334,53.472981770833336,0)" xlink:href="#ay"/><use transform="matrix(0.010091145833333334,0,0,0.010091145833333334,70.01236979166667,0)" xlink:href="#au"/><use transform="matrix(0.010091145833333334,0,0,0.010091145833333334,82.06119791666667,0)" xlink:href="#ax"/></g><path d="M537 14c-226 0-379-139-379-422v-710h180v695c0 172 97 275 253 275 160 0 281-109 281-300v-670h181V0H879v-209C806-46 684 14 537 14" id="az"/><path d="M677 24c-213 0-288-135-325-197h-20V0H158v-1490h180v551h14c37-59 106-193 324-193 279 0 474 222 474 576 0 356-194 580-473 580zm-27-161c209 0 317-186 317-421 0-232-105-413-317-413-206 0-314 166-314 413 0 249 111 421 314 421" id="aA"/><path d="M158 0v-1118h175l1 205c55-151 181-225 313-225 147 0 245 90 285 228 53-141 190-228 352-228 194 0 352 125 352 384V0h-181v-749c0-161-105-225-225-225-151 0-243 103-243 244V0H807v-767c0-124-93-207-219-207-131 0-250 92-250 270V0H158" id="aB"/><path d="M538 24C308 24 148-78 108-271l171-41c32 123 123 178 257 178 156 0 256-77 256-169 0-77-54-128-164-154l-186-44c-203-48-300-148-300-305 0-192 176-326 414-326 230 0 351 112 402 269l-163 42c-31-80-94-158-238-158-133 0-233 69-233 162 0 83 57 129 188 160l169 40c203 48 298 149 298 302 0 196-179 339-441 339" id="aC"/><g id="d"><use transform="matrix(0.010091145833333334,0,0,0.010091145833333334,0,0)" xlink:href="#ai"/><use transform="matrix(0.010091145833333334,0,0,0.010091145833333334,13.259765625,0)" xlink:href="#az"/><use transform="matrix(0.010091145833333334,0,0,0.010091145833333334,25.480143229166668,0)" xlink:href="#aA"/><use transform="matrix(0.010091145833333334,0,0,0.010091145833333334,38.13444010416667,0)" xlink:href="#aB"/><use transform="matrix(0.010091145833333334,0,0,0.010091145833333334,56.23795572916667,0)" xlink:href="#at"/><use transform="matrix(0.010091145833333334,0,0,0.010091145833333334,61.2431640625,0)" xlink:href="#aC"/><use transform="matrix(0.010091145833333334,0,0,0.010091145833333334,72.15169270833334,0)" xlink:href="#aC"/><use transform="matrix(0.010091145833333334,0,0,0.010091145833333334,83.06022135416667,0)" xlink:href="#at"/><use transform="matrix(0.010091145833333334,0,0,0.010091145833333334,88.0654296875,0)" xlink:href="#aw"/><use transform="matrix(0.010091145833333334,0,0,0.010091145833333334,100.45735677083331,0)" xlink:href="#ar"/></g><g id="e"><use transform="matrix(0.010091145833333334,0,0,0.010091145833333334,0,0)" xlink:href="#an"/><use transform="matrix(0.010091145833333334,0,0,0.010091145833333334,15.096354166666668,0)" xlink:href="#ao"/><use transform="matrix(0.010091145833333334,0,0,0.010091145833333334,28.396484375,0)" xlink:href="#ap"/></g><path d="M338-1490V0H158v-1490h180" id="aD"/><path d="M613 24c-304 0-509-231-509-576 0-350 205-580 509-580 216 0 392 114 453 309l-173 49c-33-115-133-197-280-197-223 0-326 196-326 419 0 220 103 415 326 415 150 0 252-85 285-206l172 49C1010-95 832 24 613 24" id="aE"/><g id="f"><use transform="matrix(0.010091145833333334,0,0,0.010091145833333334,0,0)" xlink:href="#an"/><use transform="matrix(0.010091145833333334,0,0,0.010091145833333334,15.096354166666668,0)" xlink:href="#aw"/><use transform="matrix(0.010091145833333334,0,0,0.010091145833333334,27.48828125,0)" xlink:href="#aD"/><use transform="matrix(0.010091145833333334,0,0,0.010091145833333334,32.493489583333336,0)" xlink:href="#aD"/><use transform="matrix(0.010091145833333334,0,0,0.010091145833333334,37.49869791666667,0)" xlink:href="#au"/><use transform="matrix(0.010091145833333334,0,0,0.010091145833333334,49.54752604166667,0)" xlink:href="#aE"/><use transform="matrix(0.010091145833333334,0,0,0.010091145833333334,61.35416666666667,0)" xlink:href="#aj"/><use transform="matrix(0.010091145833333334,0,0,0.010091145833333334,67.91341145833334,0)" xlink:href="#aC"/></g><path d="M577 24c-279 0-473-224-473-580 0-354 195-576 474-576 218 0 287 134 324 193h14v-551h180V0H922v-173h-20C865-111 790 24 577 24zm27-161c203 0 314-172 314-421 0-247-108-413-314-413-212 0-317 181-317 413 0 235 108 421 317 421" id="aF"/><g id="g"><use transform="matrix(0.010091145833333334,0,0,0.010091145833333334,0,0)" xlink:href="#ak"/><use transform="matrix(0.010091145833333334,0,0,0.010091145833333334,11.604817708333334,0)" xlink:href="#ar"/><use transform="matrix(0.010091145833333334,0,0,0.010091145833333334,23.815104166666668,0)" xlink:href="#aF"/></g><g id="h"><use transform="matrix(0.010091145833333334,0,0,0.010091145833333334,0,0)" xlink:href="#ai"/><use transform="matrix(0.010091145833333334,0,0,0.010091145833333334,13.259765625,0)" xlink:href="#aj"/><use transform="matrix(0.010091145833333334,0,0,0.010091145833333334,19.819010416666668,0)" xlink:href="#aw"/><use transform="matrix(0.010091145833333334,0,0,0.010091145833333334,32.2109375,0)" xlink:href="#ax"/><use transform="matrix(0.010091145833333334,0,0,0.010091145833333334,39.64811197916667,0)" xlink:href="#au"/><use transform="matrix(0.010091145833333334,0,0,0.010091145833333334,51.69694010416667,0)" xlink:href="#aC"/></g><path d="M763 24c-353 0-583-224-583-531v-983h190v968c0 214 149 370 393 370 243 0 391-156 391-370v-968h190v983c0 307-230 531-581 531" id="aG"/><path d="M158 418v-1536h174v179h20c37-59 106-193 324-193 279 0 474 222 474 576 0 356-194 580-473 580-213 0-288-135-325-197h-14v591H158zm492-555c209 0 317-186 317-421 0-232-105-413-317-413-206 0-314 166-314 413 0 249 111 421 314 421" id="aH"/><g id="i"><use transform="matrix(0.010091145833333334,0,0,0.010091145833333334,0,0)" xlink:href="#aG"/><use transform="matrix(0.010091145833333334,0,0,0.010091145833333334,15.37890625,0)" xlink:href="#aH"/><use transform="matrix(0.010091145833333334,0,0,0.010091145833333334,28.033203125,0)" xlink:href="#aD"/><use transform="matrix(0.010091145833333334,0,0,0.010091145833333334,33.038411458333336,0)" xlink:href="#aw"/><use transform="matrix(0.010091145833333334,0,0,0.010091145833333334,45.632161458333336,0)" xlink:href="#ak"/><use transform="matrix(0.010091145833333334,0,0,0.010091145833333334,57.23697916666667,0)" xlink:href="#aF"/><use transform="matrix(0.010091145833333334,0,0,0.010091145833333334,69.89127604166667,0)" xlink:href="#au"/><use transform="matrix(0.010091145833333334,0,0,0.010091145833333334,81.94010416666667,0)" xlink:href="#aF"/></g><path d="M645 0H180v-1490h484c435 0 692 280 692 742 0 466-257 748-711 748zM370-168h263c363 0 539-218 539-580 0-358-176-574-521-574H370v1154" id="aI"/><g id="j"><use transform="matrix(0.010091145833333334,0,0,0.010091145833333334,0,0)" xlink:href="#aI"/><use transform="matrix(0.010091145833333334,0,0,0.010091145833333334,14.914713541666668,0)" xlink:href="#aw"/><use transform="matrix(0.010091145833333334,0,0,0.010091145833333334,27.306640625,0)" xlink:href="#aE"/><use transform="matrix(0.010091145833333334,0,0,0.010091145833333334,39.11328125,0)" xlink:href="#az"/><use transform="matrix(0.010091145833333334,0,0,0.010091145833333334,51.33365885416667,0)" xlink:href="#aB"/><use transform="matrix(0.010091145833333334,0,0,0.010091145833333334,69.43717447916667,0)" xlink:href="#au"/><use transform="matrix(0.010091145833333334,0,0,0.010091145833333334,81.48600260416667,0)" xlink:href="#ar"/><use transform="matrix(0.010091145833333334,0,0,0.010091145833333334,93.6962890625,0)" xlink:href="#aj"/><use transform="matrix(0.010091145833333334,0,0,0.010091145833333334,100.25553385416666,0)" xlink:href="#aC"/></g><g id="k"><use transform="matrix(0.010091145833333334,0,0,0.010091145833333334,0,0)" xlink:href="#aI"/><use transform="matrix(0.010091145833333334,0,0,0.010091145833333334,14.914713541666668,0)" xlink:href="#aw"/><use transform="matrix(0.010091145833333334,0,0,0.010091145833333334,27.306640625,0)" xlink:href="#aE"/><use transform="matrix(0.010091145833333334,0,0,0.010091145833333334,39.11328125,0)" xlink:href="#az"/><use transform="matrix(0.010091145833333334,0,0,0.010091145833333334,51.33365885416667,0)" xlink:href="#aB"/><use transform="matrix(0.010091145833333334,0,0,0.010091145833333334,69.43717447916667,0)" xlink:href="#au"/><use transform="matrix(0.010091145833333334,0,0,0.010091145833333334,81.48600260416667,0)" xlink:href="#ar"/><use transform="matrix(0.010091145833333334,0,0,0.010091145833333334,93.6962890625,0)" xlink:href="#aj"/></g><path d="M65 0l393-574-370-544h210c88 136 192 297 267 435 67-142 176-302 264-435h206L661-564 1053 0H844c-94-144-206-310-287-458C484-308 366-142 273 0H65" id="aJ"/><g id="l"><use transform="matrix(0.010091145833333334,0,0,0.010091145833333334,0,0)" xlink:href="#aq"/><use transform="matrix(0.010091145833333334,0,0,0.010091145833333334,12.422200520833334,0)" xlink:href="#aJ"/><use transform="matrix(0.010091145833333334,0,0,0.010091145833333334,24.107747395833336,0)" xlink:href="#aj"/><use transform="matrix(0.010091145833333334,0,0,0.010091145833333334,30.86881510416667,0)" xlink:href="#ax"/><use transform="matrix(0.010091145833333334,0,0,0.010091145833333334,38.64908854166667,0)" xlink:href="#ak"/><use transform="matrix(0.010091145833333334,0,0,0.010091145833333334,50.25390625,0)" xlink:href="#aE"/><use transform="matrix(0.010091145833333334,0,0,0.010091145833333334,62.06054687500001,0)" xlink:href="#aj"/><use transform="matrix(0.010091145833333334,0,0,0.010091145833333334,68.82161458333334,0)" xlink:href="#at"/><use transform="matrix(0.010091145833333334,0,0,0.010091145833333334,73.82682291666667,0)" xlink:href="#aw"/><use transform="matrix(0.010091145833333334,0,0,0.010091145833333334,86.21875,0)" xlink:href="#ar"/></g><path d="M180 0v-1490h510c348 0 508 209 508 474 0 266-160 477-507 477H370V0H180zm190-706h312c236 0 327-133 327-310 0-176-91-307-329-307H370v617" id="aK"/><g id="m"><use transform="matrix(0.010091145833333334,0,0,0.010091145833333334,0,0)" xlink:href="#aK"/><use transform="matrix(0.010091145833333334,0,0,0.010091145833333334,13.088216145833334,0)" xlink:href="#au"/><use transform="matrix(0.010091145833333334,0,0,0.010091145833333334,25.137044270833336,0)" xlink:href="#ax"/><use transform="matrix(0.010091145833333334,0,0,0.010091145833333334,33.24023437500001,0)" xlink:href="#al"/><use transform="matrix(0.010091145833333334,0,0,0.010091145833333334,40.28385416666667,0)" xlink:href="#aw"/><use transform="matrix(0.010091145833333334,0,0,0.010091145833333334,52.67578125,0)" xlink:href="#ax"/><use transform="matrix(0.010091145833333334,0,0,0.010091145833333334,60.77897135416667,0)" xlink:href="#aB"/><use transform="matrix(0.010091145833333334,0,0,0.010091145833333334,78.88248697916667,0)" xlink:href="#au"/><use transform="matrix(0.010091145833333334,0,0,0.010091145833333334,90.93131510416667,0)" xlink:href="#aF"/></g><path d="M140 405l46-156c120 36 205 19 263-150l32-93L54-1118h197c107 313 237 620 324 950 87-331 219-637 326-950h196L606 167c-68 178-176 259-334 259-64 0-113-12-132-21" id="aL"/><g id="n"><use transform="matrix(0.010091145833333334,0,0,0.010091145833333334,0,0)" xlink:href="#aA"/><use transform="matrix(0.010091145833333334,0,0,0.010091145833333334,12.250651041666664,0)" xlink:href="#aL"/></g><g id="o"><use transform="matrix(0.010091145833333334,0,0,0.010091145833333334,0,0)" xlink:href="#an"/><use transform="matrix(0.010091145833333334,0,0,0.010091145833333334,15.096354166666668,0)" xlink:href="#ao"/><use transform="matrix(0.010091145833333334,0,0,0.010091145833333334,28.396484375,0)" xlink:href="#ap"/></g><path d="M370-1490V0H180v-1490h190" id="aM"/><g id="p"><use transform="matrix(0.010091145833333334,0,0,0.010091145833333334,0,0)" xlink:href="#aM"/><use transform="matrix(0.010091145833333334,0,0,0.010091145833333334,5.550130208333334,0)" xlink:href="#ar"/><use transform="matrix(0.010091145833333334,0,0,0.010091145833333334,17.760416666666668,0)" xlink:href="#al"/><use transform="matrix(0.010091145833333334,0,0,0.010091145833333334,24.804036458333336,0)" xlink:href="#aw"/><use transform="matrix(0.010091145833333334,0,0,0.010091145833333334,37.19596354166667,0)" xlink:href="#ax"/><use transform="matrix(0.010091145833333334,0,0,0.010091145833333334,45.299153645833336,0)" xlink:href="#aB"/><use transform="matrix(0.010091145833333334,0,0,0.010091145833333334,63.402669270833336,0)" xlink:href="#ak"/><use transform="matrix(0.010091145833333334,0,0,0.010091145833333334,75.00748697916667,0)" xlink:href="#aj"/><use transform="matrix(0.010091145833333334,0,0,0.010091145833333334,81.7685546875,0)" xlink:href="#at"/><use transform="matrix(0.010091145833333334,0,0,0.010091145833333334,86.77376302083331,0)" xlink:href="#aw"/><use transform="matrix(0.010091145833333334,0,0,0.010091145833333334,99.16569010416666,0)" xlink:href="#ar"/></g><g id="q"><use transform="matrix(0.010091145833333334,0,0,0.010091145833333334,0,0)" xlink:href="#az"/><use transform="matrix(0.010091145833333334,0,0,0.010091145833333334,12.220377604166668,0)" xlink:href="#aH"/><use transform="matrix(0.010091145833333334,0,0,0.010091145833333334,24.874674479166668,0)" xlink:href="#aD"/><use transform="matrix(0.010091145833333334,0,0,0.010091145833333334,29.8798828125,0)" xlink:href="#aw"/><use transform="matrix(0.010091145833333334,0,0,0.010091145833333334,42.4736328125,0)" xlink:href="#ak"/><use transform="matrix(0.010091145833333334,0,0,0.010091145833333334,54.078450520833336,0)" xlink:href="#aF"/></g><path fill="#333" d="M440-1490V0H135v-1490h305" id="aN"/><path fill="#333" d="M428-647V0H128v-1118h283l4 231c63-156 176-245 348-245 232 0 384 159 384 421V0H847v-659c0-139-76-222-202-222-128 0-217 86-217 234" id="aO"/><path fill="#333" d="M750-1118v229H516V0H217v-889H20v-229h197v-86c0-238 156-356 363-356 94 0 178 20 215 31l-54 226c-25-7-61-15-100-15-123-3-131 84-125 200h234" id="aP"/><path fill="#333" d="M628 22C291 22 81-210 81-554c0-346 210-578 547-578 336 0 547 232 547 578 0 344-211 576-547 576zm0-236c160 0 242-146 242-341 0-197-82-341-242-341S387-753 387-555c0 195 81 341 241 341" id="aQ"/><path fill="#333" d="M128 0v-1118h290v195h12c54-169 184-238 367-200v268c-27-8-86-15-130-15-138 0-239 95-239 234V0H128" id="aR"/><path fill="#333" d="M128 0v-1118h278l12 217c60-163 185-234 319-234 143 0 236 81 288 251 63-172 205-251 359-251 205 0 357 138 357 381V0h-301v-697c0-126-76-187-177-187-114 0-184 79-184 196V0H789v-705c0-109-72-179-174-179-106 0-187 74-187 208V0H128" id="aS"/><path fill="#333" d="M440 22C227 22 68-92 68-313c0-250 202-322 422-343 195-21 271-24 271-105 0-95-63-149-175-149-116 0-187 57-211 129l-275-46c57-194 237-305 487-305 240 0 474 108 474 379V0H777v-155h-10C713-51 605 22 440 22zm85-211c140 0 238-93 238-211v-121c-37 26-156 42-222 51-111 16-185 59-185 149 0 87 70 132 169 132" id="aT"/><path fill="#333" d="M683-1118v229H474v562c0 71 29 104 102 104 23 0 73-7 95-13l43 225C647 9 580 16 520 16 296 16 174-96 174-301v-588H20v-229h154v-266h300v266h209" id="aU"/><path fill="#333" d="M128 0v-1118h300V0H128zm150-1264c-91 0-165-68-165-154 0-85 74-154 165-154 90 0 165 69 165 154 0 86-75 154-165 154" id="aV"/><g id="r"><use transform="matrix(0.008680555555555556,0,0,0.008680555555555556,0,0)" xlink:href="#aN"/><use transform="matrix(0.008680555555555556,0,0,0.008680555555555556,4.991319444444445,0)" xlink:href="#aO"/><use transform="matrix(0.008680555555555556,0,0,0.008680555555555556,16.05902777777778,0)" xlink:href="#aP"/><use transform="matrix(0.008680555555555556,0,0,0.008680555555555556,22.75173611111111,0)" xlink:href="#aQ"/><use transform="matrix(0.008680555555555556,0,0,0.008680555555555556,33.654513888888886,0)" xlink:href="#aR"/><use transform="matrix(0.008680555555555556,0,0,0.008680555555555556,41.02430555555556,0)" xlink:href="#aS"/><use transform="matrix(0.008680555555555556,0,0,0.008680555555555556,57.24826388888889,0)" xlink:href="#aT"/><use transform="matrix(0.008680555555555556,0,0,0.008680555555555556,67.56944444444444,0)" xlink:href="#aU"/><use transform="matrix(0.008680555555555556,0,0,0.008680555555555556,74.07986111111111,0)" xlink:href="#aV"/><use transform="matrix(0.008680555555555556,0,0,0.008680555555555556,78.89756944444444,0)" xlink:href="#aQ"/><use transform="matrix(0.008680555555555556,0,0,0.008680555555555556,89.80034722222223,0)" xlink:href="#aO"/></g><path fill="#333" d="M768-1560L288 224H28l480-1784h260" id="aW"/><use transform="matrix(0.008680555555555556,0,0,0.008680555555555556,0,0)" xlink:href="#aW" id="s"/><path fill="#333" d="M659 0H135v-1490h529c448 0 721 280 721 744 0 466-273 746-726 746zM440-263h204c287 0 437-148 437-483 0-333-150-481-435-481H440v964" id="aX"/><g id="t"><use transform="matrix(0.008680555555555556,0,0,0.008680555555555556,0,0)" xlink:href="#aX"/><use transform="matrix(0.008680555555555556,0,0,0.008680555555555556,12.838541666666668,0)" xlink:href="#aT"/><use transform="matrix(0.008680555555555556,0,0,0.008680555555555556,23.159722222222225,0)" xlink:href="#aU"/><use transform="matrix(0.008680555555555556,0,0,0.008680555555555556,29.756944444444446,0)" xlink:href="#aT"/></g><path fill="#333" d="M135 0v-1490h980v253H440v416h609v249H440V0H135" id="aY"/><path fill="#333" d="M428-1490V0H128v-1490h300" id="aZ"/><path fill="#333" d="M361 0L31-1118h315c68 295 127 523 188 845 63-317 128-551 199-845h276c71 296 131 525 196 846 57-321 119-552 186-846h319L1378 0h-305c-73-261-148-486-204-771C813-484 740-261 666 0H361" id="ba"/><g id="u"><use transform="matrix(0.008680555555555556,0,0,0.008680555555555556,0,0)" xlink:href="#aY"/><use transform="matrix(0.008680555555555556,0,0,0.008680555555555556,10.434027777777779,0)" xlink:href="#aZ"/><use transform="matrix(0.008680555555555556,0,0,0.008680555555555556,15.251736111111112,0)" xlink:href="#aQ"/><use transform="matrix(0.008680555555555556,0,0,0.008680555555555556,25.911458333333336,0)" xlink:href="#ba"/></g><g id="v"><use transform="matrix(0.010091145833333334,0,0,0.010091145833333334,0,0)" xlink:href="#aq"/><use transform="matrix(0.010091145833333334,0,0,0.010091145833333334,12.422200520833334,0)" xlink:href="#ar"/><use transform="matrix(0.010091145833333334,0,0,0.010091145833333334,24.632486979166668,0)" xlink:href="#as"/><use transform="matrix(0.010091145833333334,0,0,0.010091145833333334,37.306966145833336,0)" xlink:href="#at"/><use transform="matrix(0.010091145833333334,0,0,0.010091145833333334,42.31217447916667,0)" xlink:href="#ar"/><use transform="matrix(0.010091145833333334,0,0,0.010091145833333334,54.5224609375,0)" xlink:href="#au"/></g><g id="w"><use transform="matrix(0.010091145833333334,0,0,0.010091145833333334,0,0)" xlink:href="#aK"/><use transform="matrix(0.010091145833333334,0,0,0.010091145833333334,13.088216145833334,0)" xlink:href="#au"/><use transform="matrix(0.010091145833333334,0,0,0.010091145833333334,25.137044270833336,0)" xlink:href="#ax"/><use transform="matrix(0.010091145833333334,0,0,0.010091145833333334,33.24023437500001,0)" xlink:href="#al"/><use transform="matrix(0.010091145833333334,0,0,0.010091145833333334,40.28385416666667,0)" xlink:href="#aw"/><use transform="matrix(0.010091145833333334,0,0,0.010091145833333334,52.67578125,0)" xlink:href="#ax"/><use transform="matrix(0.010091145833333334,0,0,0.010091145833333334,60.77897135416667,0)" xlink:href="#aB"/><use transform="matrix(0.010091145833333334,0,0,0.010091145833333334,78.88248697916667,0)" xlink:href="#aC"/></g><path d="M52 0l541-1490h220L1361 0h-200l-149-416H398L254 0H52zm404-582h497c-103-290-145-390-251-756-108 377-145 460-246 756" id="bb"/><g id="x"><use transform="matrix(0.010091145833333334,0,0,0.010091145833333334,0,0)" xlink:href="#bb"/><use transform="matrix(0.010091145833333334,0,0,0.010091145833333334,14.2587890625,0)" xlink:href="#az"/><use transform="matrix(0.010091145833333334,0,0,0.010091145833333334,26.479166666666668,0)" xlink:href="#aj"/><use transform="matrix(0.010091145833333334,0,0,0.010091145833333334,33.038411458333336,0)" xlink:href="#aw"/><use transform="matrix(0.010091145833333334,0,0,0.010091145833333334,45.43033854166667,0)" xlink:href="#aB"/><use transform="matrix(0.010091145833333334,0,0,0.010091145833333334,63.53385416666667,0)" xlink:href="#ak"/><use transform="matrix(0.010091145833333334,0,0,0.010091145833333334,75.138671875,0)" xlink:href="#aj"/><use transform="matrix(0.010091145833333334,0,0,0.010091145833333334,81.69791666666666,0)" xlink:href="#au"/><use transform="matrix(0.010091145833333334,0,0,0.010091145833333334,93.74674479166666,0)" xlink:href="#aF"/></g><path d="M798-719v166H144v-166h654" id="bc"/><g id="y"><use transform="matrix(0.010091145833333334,0,0,0.010091145833333334,0,0)" xlink:href="#an"/><use transform="matrix(0.010091145833333334,0,0,0.010091145833333334,15.096354166666668,0)" xlink:href="#bc"/><use transform="matrix(0.010091145833333334,0,0,0.010091145833333334,24.602213541666668,0)" xlink:href="#aA"/><use transform="matrix(0.010091145833333334,0,0,0.010091145833333334,36.852864583333336,0)" xlink:href="#aL"/><use transform="matrix(0.010091145833333334,0,0,0.010091145833333334,47.650390625,0)" xlink:href="#bc"/><use transform="matrix(0.010091145833333334,0,0,0.010091145833333334,57.15625,0)" xlink:href="#an"/></g><g id="z"><use transform="matrix(0.010091145833333334,0,0,0.010091145833333334,0,0)" xlink:href="#ai"/><use transform="matrix(0.010091145833333334,0,0,0.010091145833333334,13.259765625,0)" xlink:href="#aE"/><use transform="matrix(0.010091145833333334,0,0,0.010091145833333334,25.06640625,0)" xlink:href="#aw"/><use transform="matrix(0.010091145833333334,0,0,0.010091145833333334,37.458333333333336,0)" xlink:href="#ax"/><use transform="matrix(0.010091145833333334,0,0,0.010091145833333334,45.5615234375,0)" xlink:href="#at"/><use transform="matrix(0.010091145833333334,0,0,0.010091145833333334,50.566731770833336,0)" xlink:href="#ar"/><use transform="matrix(0.010091145833333334,0,0,0.010091145833333334,62.77701822916667,0)" xlink:href="#as"/></g><path d="M180 0v-1490h901v168H370v510h643v168H370V0H180" id="bd"/><path d="M383-449c-3-277 82-343 222-425 88-53 156-134 156-250 0-139-108-227-243-227-118 0-235 70-246 236H82c10-251 200-395 436-395 259 0 427 165 427 393 0 161-74 273-203 352-132 80-180 132-178 316H383zm93 462c-75 0-135-60-135-134 0-75 60-135 135-135 74 0 134 60 134 135 0 74-60 134-134 134" id="be"/><g id="A"><use transform="matrix(0.010850694444444444,0,0,0.010850694444444444,0,0)" xlink:href="#bd"/><use transform="matrix(0.010850694444444444,0,0,0.010850694444444444,13.118489583333332,0)" xlink:href="#aD"/><use transform="matrix(0.010850694444444444,0,0,0.010850694444444444,18.50043402777778,0)" xlink:href="#ak"/><use transform="matrix(0.010850694444444444,0,0,0.010850694444444444,30.97873263888889,0)" xlink:href="#as"/><use transform="matrix(0.010850694444444444,0,0,0.010850694444444444,44.60720486111111,0)" xlink:href="#be"/></g><g id="B"><use transform="matrix(0.010850694444444444,0,0,0.010850694444444444,0,0)" xlink:href="#bb"/><use transform="matrix(0.010850694444444444,0,0,0.010850694444444444,15.33203125,0)" xlink:href="#az"/><use transform="matrix(0.010850694444444444,0,0,0.010850694444444444,28.47222222222222,0)" xlink:href="#aj"/><use transform="matrix(0.010850694444444444,0,0,0.010850694444444444,35.52517361111111,0)" xlink:href="#aw"/></g><g id="C"><use transform="matrix(0.010850694444444444,0,0,0.010850694444444444,0,0)" xlink:href="#aK"/><use transform="matrix(0.010850694444444444,0,0,0.010850694444444444,14.192708333333332,0)" xlink:href="#ax"/><use transform="matrix(0.010850694444444444,0,0,0.010850694444444444,22.189670138888886,0)" xlink:href="#aw"/><use transform="matrix(0.010850694444444444,0,0,0.010850694444444444,35.514322916666664,0)" xlink:href="#aE"/><use transform="matrix(0.010850694444444444,0,0,0.010850694444444444,48.209635416666664,0)" xlink:href="#au"/><use transform="matrix(0.010850694444444444,0,0,0.010850694444444444,61.16536458333333,0)" xlink:href="#au"/><use transform="matrix(0.010850694444444444,0,0,0.010850694444444444,74.12109375,0)" xlink:href="#aF"/></g><g id="D"><use transform="matrix(0.010850694444444444,0,0,0.010850694444444444,0,0)" xlink:href="#aj"/><use transform="matrix(0.010850694444444444,0,0,0.010850694444444444,7.052951388888888,0)" xlink:href="#aw"/></g><g id="E"><use transform="matrix(0.010850694444444444,0,0,0.010850694444444444,0,0)" xlink:href="#bd"/><use transform="matrix(0.010850694444444444,0,0,0.010850694444444444,13.118489583333332,0)" xlink:href="#at"/><use transform="matrix(0.010850694444444444,0,0,0.010850694444444444,18.50043402777778,0)" xlink:href="#ar"/><use transform="matrix(0.010850694444444444,0,0,0.010850694444444444,31.62977430555556,0)" xlink:href="#ak"/><use transform="matrix(0.010850694444444444,0,0,0.010850694444444444,44.10807291666667,0)" xlink:href="#aD"/></g><g id="F"><use transform="matrix(0.010850694444444444,0,0,0.010850694444444444,0,0)" xlink:href="#aI"/><use transform="matrix(0.010850694444444444,0,0,0.010850694444444444,16.03732638888889,0)" xlink:href="#au"/><use transform="matrix(0.010850694444444444,0,0,0.010850694444444444,28.99305555555556,0)" xlink:href="#aE"/><use transform="matrix(0.010850694444444444,0,0,0.010850694444444444,41.68836805555556,0)" xlink:href="#at"/><use transform="matrix(0.010850694444444444,0,0,0.010850694444444444,47.0703125,0)" xlink:href="#aC"/><use transform="matrix(0.010850694444444444,0,0,0.010850694444444444,58.79991319444444,0)" xlink:href="#at"/><use transform="matrix(0.010850694444444444,0,0,0.010850694444444444,64.18185763888889,0)" xlink:href="#aw"/><use transform="matrix(0.010850694444444444,0,0,0.010850694444444444,77.50651041666666,0)" xlink:href="#ar"/></g><g id="G"><use transform="matrix(0.010850694444444444,0,0,0.010850694444444444,0,0)" xlink:href="#ap"/><use transform="matrix(0.010850694444444444,0,0,0.010850694444444444,20.07378472222222,0)" xlink:href="#ak"/><use transform="matrix(0.010850694444444444,0,0,0.010850694444444444,32.55208333333333,0)" xlink:href="#ar"/><use transform="matrix(0.010850694444444444,0,0,0.010850694444444444,45.68142361111111,0)" xlink:href="#az"/><use transform="matrix(0.010850694444444444,0,0,0.010850694444444444,58.82161458333333,0)" xlink:href="#ak"/><use transform="matrix(0.010850694444444444,0,0,0.010850694444444444,71.29991319444444,0)" xlink:href="#aD"/></g><path d="M481 0L54-1118h197c107 314 236 620 325 951 87-331 217-637 324-951h197L670 0H481" id="bf"/><g id="H"><use transform="matrix(0.010850694444444444,0,0,0.010850694444444444,0,0)" xlink:href="#ao"/><use transform="matrix(0.010850694444444444,0,0,0.010850694444444444,13.975694444444445,0)" xlink:href="#au"/><use transform="matrix(0.010850694444444444,0,0,0.010850694444444444,26.49739583333333,0)" xlink:href="#bf"/><use transform="matrix(0.010850694444444444,0,0,0.010850694444444444,38.986545138888886,0)" xlink:href="#at"/><use transform="matrix(0.010850694444444444,0,0,0.010850694444444444,44.36848958333333,0)" xlink:href="#au"/><use transform="matrix(0.010850694444444444,0,0,0.010850694444444444,56.92274305555555,0)" xlink:href="#ay"/></g><path d="M1096 418H916v-591h-14C865-111 790 24 577 24c-279 0-473-224-473-580 0-354 195-576 474-576 218 0 287 134 324 193h20v-179h174V418zM604-137c203 0 314-172 314-421 0-247-108-413-314-413-212 0-317 181-317 413 0 235 108 421 317 421" id="bg"/><g id="I"><use transform="matrix(0.010850694444444444,0,0,0.010850694444444444,0,0)" xlink:href="#ao"/><use transform="matrix(0.010850694444444444,0,0,0.010850694444444444,13.975694444444445,0)" xlink:href="#au"/><use transform="matrix(0.010850694444444444,0,0,0.010850694444444444,26.931423611111104,0)" xlink:href="#bg"/><use transform="matrix(0.010850694444444444,0,0,0.010850694444444444,40.53819444444444,0)" xlink:href="#az"/><use transform="matrix(0.010850694444444444,0,0,0.010850694444444444,53.678385416666664,0)" xlink:href="#at"/><use transform="matrix(0.010850694444444444,0,0,0.010850694444444444,59.06032986111111,0)" xlink:href="#ax"/><use transform="matrix(0.010850694444444444,0,0,0.010850694444444444,67.05729166666666,0)" xlink:href="#au"/><use transform="matrix(0.010850694444444444,0,0,0.010850694444444444,80.01302083333333,0)" xlink:href="#aF"/></g><path fill="#333" d="M601 0v-560L49-1490h357l252 464c38 68 67 130 97 208 96-243 225-446 337-672h356L905-560V0H601" id="bh"/><path fill="#333" d="M633 22C291 22 81-200 81-553c0-345 210-579 537-579 292 0 525 185 525 567v84H378c7 183 109 277 260 277 105 0 184-46 216-132l272 51C1071-99 893 22 633 22zM380-669h474c-15-146-94-237-233-237-143 0-229 99-241 237" id="bi"/><path fill="#333" d="M572 22C302 22 117-98 78-306l279-48c29 105 101 156 224 156 114 0 185-48 185-115 0-118-228-130-337-155-215-49-322-150-322-317 0-215 187-347 470-347 265 0 424 116 466 298l-266 47c-24-76-87-130-196-130-98 0-174 46-174 113 0 56 38 95 144 117l201 40c216 44 320 143 320 302 0 220-207 367-500 367" id="bj"/><g id="J"><use transform="matrix(0.008680555555555556,0,0,0.008680555555555556,0,0)" xlink:href="#bh"/><use transform="matrix(0.008680555555555556,0,0,0.008680555555555556,11.050347222222223,0)" xlink:href="#bi"/><use transform="matrix(0.008680555555555556,0,0,0.008680555555555556,21.640625,0)" xlink:href="#bj"/></g><path fill="#333" d="M135 0v-1490h340l471 754c59 97 122 210 187 365-32-387-14-721-19-1119h312V0h-341C855-382 627-689 427-1113c32 420 16 695 20 1113H135" id="bk"/><g id="K"><use transform="matrix(0.008680555555555556,0,0,0.008680555555555556,0,0)" xlink:href="#bk"/><use transform="matrix(0.008680555555555556,0,0,0.008680555555555556,13.550347222222223,0)" xlink:href="#aQ"/></g><g id="L"><use transform="matrix(0.010850694444444444,0,0,0.010850694444444444,0,0)" xlink:href="#aK"/><use transform="matrix(0.010850694444444444,0,0,0.010850694444444444,14.192708333333332,0)" xlink:href="#ak"/><use transform="matrix(0.010850694444444444,0,0,0.010850694444444444,26.671006944444443,0)" xlink:href="#aC"/><use transform="matrix(0.010850694444444444,0,0,0.010850694444444444,38.400607638888886,0)" xlink:href="#aC"/></g><g id="M"><use transform="matrix(0.010850694444444444,0,0,0.010850694444444444,0,0)" xlink:href="#ap"/><use transform="matrix(0.010850694444444444,0,0,0.010850694444444444,20.07378472222222,0)" xlink:href="#ak"/><use transform="matrix(0.010850694444444444,0,0,0.010850694444444444,32.55208333333333,0)" xlink:href="#ar"/><use transform="matrix(0.010850694444444444,0,0,0.010850694444444444,45.68142361111111,0)" xlink:href="#az"/><use transform="matrix(0.010850694444444444,0,0,0.010850694444444444,58.82161458333333,0)" xlink:href="#ak"/><use transform="matrix(0.010850694444444444,0,0,0.010850694444444444,71.29991319444444,0)" xlink:href="#aD"/></g><g id="N"><use transform="matrix(0.010850694444444444,0,0,0.010850694444444444,0,0)" xlink:href="#ao"/><use transform="matrix(0.010850694444444444,0,0,0.010850694444444444,13.975694444444445,0)" xlink:href="#au"/><use transform="matrix(0.010850694444444444,0,0,0.010850694444444444,26.49739583333333,0)" xlink:href="#bf"/><use transform="matrix(0.010850694444444444,0,0,0.010850694444444444,38.986545138888886,0)" xlink:href="#at"/><use transform="matrix(0.010850694444444444,0,0,0.010850694444444444,44.36848958333333,0)" xlink:href="#au"/><use transform="matrix(0.010850694444444444,0,0,0.010850694444444444,56.92274305555555,0)" xlink:href="#ay"/></g><g id="O"><use transform="matrix(0.010850694444444444,0,0,0.010850694444444444,0,0)" xlink:href="#aI"/><use transform="matrix(0.010850694444444444,0,0,0.010850694444444444,16.03732638888889,0)" xlink:href="#au"/><use transform="matrix(0.010850694444444444,0,0,0.010850694444444444,28.99305555555556,0)" xlink:href="#aE"/><use transform="matrix(0.010850694444444444,0,0,0.010850694444444444,41.68836805555556,0)" xlink:href="#at"/><use transform="matrix(0.010850694444444444,0,0,0.010850694444444444,47.0703125,0)" xlink:href="#aC"/><use transform="matrix(0.010850694444444444,0,0,0.010850694444444444,58.79991319444444,0)" xlink:href="#at"/><use transform="matrix(0.010850694444444444,0,0,0.010850694444444444,64.18185763888889,0)" xlink:href="#aw"/><use transform="matrix(0.010850694444444444,0,0,0.010850694444444444,77.50651041666666,0)" xlink:href="#ar"/></g><g id="P"><use transform="matrix(0.010850694444444444,0,0,0.010850694444444444,0,0)" xlink:href="#aI"/><use transform="matrix(0.010850694444444444,0,0,0.010850694444444444,16.03732638888889,0)" xlink:href="#au"/><use transform="matrix(0.010850694444444444,0,0,0.010850694444444444,28.99305555555556,0)" xlink:href="#aE"/><use transform="matrix(0.010850694444444444,0,0,0.010850694444444444,41.68836805555556,0)" xlink:href="#aD"/><use transform="matrix(0.010850694444444444,0,0,0.010850694444444444,47.0703125,0)" xlink:href="#at"/><use transform="matrix(0.010850694444444444,0,0,0.010850694444444444,52.45225694444444,0)" xlink:href="#ar"/><use transform="matrix(0.010850694444444444,0,0,0.010850694444444444,65.58159722222221,0)" xlink:href="#au"/></g><path fill="#333" d="M49 0l509-1490h400L1480 0h-339l-115-346H497L386 0H49zm524-585h374c-75-213-124-402-192-666-66 268-110 453-182 666" id="bl"/><path fill="#333" d="M128 418v-1536h295v188h14c41-89 129-202 319-202 248 0 453 193 453 575 0 372-197 576-455 576-183 0-275-108-317-198h-9v597H128zm534-640c156 0 240-139 240-336 0-196-83-334-240-334-154 0-241 131-241 334 0 202 88 336 241 336" id="bm"/><path fill="#333" d="M443 0L31-1118h319c90 293 199 572 268 885 66-313 175-593 264-885h315L784 0H443" id="bn"/><g id="Q"><use transform="matrix(0.008680555555555556,0,0,0.008680555555555556,0,0)" xlink:href="#bl"/><use transform="matrix(0.008680555555555556,0,0,0.008680555555555556,13.272569444444445,0)" xlink:href="#bm"/><use transform="matrix(0.008680555555555556,0,0,0.008680555555555556,24.479166666666668,0)" xlink:href="#bm"/><use transform="matrix(0.008680555555555556,0,0,0.008680555555555556,35.68576388888889,0)" xlink:href="#aR"/><use transform="matrix(0.008680555555555556,0,0,0.008680555555555556,42.49131944444444,0)" xlink:href="#aQ"/><use transform="matrix(0.008680555555555556,0,0,0.008680555555555556,53.07291666666667,0)" xlink:href="#bn"/><use transform="matrix(0.008680555555555556,0,0,0.008680555555555556,63.411458333333336,0)" xlink:href="#bi"/></g><path fill="#333" d="M135 0v-1490h581c339 0 533 192 533 485 0 204-94 351-264 424L1302 0H964L680-532H440V0H135zm305-779h220c186 0 274-77 274-226 0-150-88-233-275-233H440v459" id="bo"/><path fill="#333" d="M127-1118h301V57c1 278-186 374-478 361V182c116 8 177-28 177-129v-1171zm151-146c-90 0-165-68-165-154 0-85 75-154 165-154s165 69 165 154c0 86-75 154-165 154" id="bp"/><path fill="#333" d="M628 22C291 22 81-210 81-554c0-346 210-578 547-578 265 0 455 142 497 372l-279 52c-25-116-99-188-215-188-160 0-244 139-244 341 0 200 84 341 244 341 116 0 193-74 217-195l279 51C1085-123 896 22 628 22" id="bq"/><g id="R"><use transform="matrix(0.008680555555555556,0,0,0.008680555555555556,0,0)" xlink:href="#bo"/><use transform="matrix(0.008680555555555556,0,0,0.008680555555555556,11.458333333333334,0)" xlink:href="#bi"/><use transform="matrix(0.008680555555555556,0,0,0.008680555555555556,22.048611111111114,0)" xlink:href="#bp"/><use transform="matrix(0.008680555555555556,0,0,0.008680555555555556,26.86631944444445,0)" xlink:href="#bi"/><use transform="matrix(0.008680555555555556,0,0,0.008680555555555556,37.45659722222223,0)" xlink:href="#bq"/><use transform="matrix(0.008680555555555556,0,0,0.008680555555555556,47.91666666666667,0)" xlink:href="#aU"/></g><path d="M659 0H135v-1490h529c448 0 721 280 721 744 0 466-273 746-726 746zM440-263h204c287 0 437-148 437-483 0-333-150-481-435-481H440v964" id="br"/><path d="M128 0v-1118h300V0H128zm150-1264c-91 0-165-68-165-154 0-85 74-154 165-154 90 0 165 69 165 154 0 86-75 154-165 154" id="bs"/><path d="M440 22C227 22 68-92 68-313c0-250 202-322 422-343 195-21 271-24 271-105 0-95-63-149-175-149-116 0-187 57-211 129l-275-46c57-194 237-305 487-305 240 0 474 108 474 379V0H777v-155h-10C713-51 605 22 440 22zm85-211c140 0 238-93 238-211v-121c-37 26-156 42-222 51-111 16-185 59-185 149 0 87 70 132 169 132" id="bt"/><path d="M625 442c-280 0-454-114-503-274l258-72c28 63 97 128 243 128 153 0 246-69 246-216v-206h-23C805-108 717-16 536-16 284-16 81-191 81-561c0-378 208-571 456-571 188 0 280 113 321 202h13v-188h295V-9c0 303-226 451-541 451zm5-686c153 0 240-119 240-319 0-198-86-329-240-329-158 0-241 137-241 329 0 195 85 319 241 319" id="bu"/><path d="M128 0v-1118h290v195h12c54-169 184-238 367-200v268c-27-8-86-15-130-15-138 0-239 95-239 234V0H128" id="bv"/><path d="M128 0v-1118h278l12 217c60-163 185-234 319-234 143 0 236 81 288 251 63-172 205-251 359-251 205 0 357 138 357 381V0h-301v-697c0-126-76-187-177-187-114 0-184 79-184 196V0H789v-705c0-109-72-179-174-179-106 0-187 74-187 208V0H128" id="bw"/><g id="S"><use transform="matrix(0.0087890625,0,0,0.0087890625,0,0)" xlink:href="#br"/><use transform="matrix(0.0087890625,0,0,0.0087890625,12.9990234375,0)" xlink:href="#bs"/><use transform="matrix(0.0087890625,0,0,0.0087890625,17.876953125,0)" xlink:href="#bt"/><use transform="matrix(0.0087890625,0,0,0.0087890625,28.3271484375,0)" xlink:href="#bu"/><use transform="matrix(0.0087890625,0,0,0.0087890625,39.7001953125,0)" xlink:href="#bv"/><use transform="matrix(0.0087890625,0,0,0.0087890625,46.7841796875,0)" xlink:href="#bt"/><use transform="matrix(0.0087890625,0,0,0.0087890625,57.234375,0)" xlink:href="#bw"/></g><path d="M128 0v-1490h300v802h17l366-430h347L740-633 1179 0H826L514-456l-86 97V0H128" id="bx"/><path d="M633 22C291 22 81-200 81-553c0-345 210-579 537-579 292 0 525 185 525 567v84H378c7 183 109 277 260 277 105 0 184-46 216-132l272 51C1071-99 893 22 633 22zM380-669h474c-15-146-94-237-233-237-143 0-229 99-241 237" id="by"/><path d="M120 396l69-226c123 42 245 23 254-107l8-60L31-1118h319c87 288 199 559 259 872 72-308 185-583 277-872h315L726 132c-68 181-186 294-410 294-79 0-153-13-196-30" id="bz"/><g id="T"><use transform="matrix(0.0087890625,0,0,0.0087890625,0,0)" xlink:href="#bx"/><use transform="matrix(0.0087890625,0,0,0.0087890625,10.037109375,0)" xlink:href="#by"/><use transform="matrix(0.0087890625,0,0,0.0087890625,20.4345703125,0)" xlink:href="#bz"/></g><g id="U"><use transform="matrix(0.0068359375,0,0,0.0068359375,0,0)" xlink:href="#ai"/><use transform="matrix(0.0068359375,0,0,0.0068359375,8.982421875,0)" xlink:href="#aj"/><use transform="matrix(0.0068359375,0,0,0.0068359375,13.630859375,0)" xlink:href="#ak"/><use transform="matrix(0.0068359375,0,0,0.0068359375,21.4921875,0)" xlink:href="#al"/><use transform="matrix(0.0068359375,0,0,0.0068359375,26.126953125,0)" xlink:href="#al"/></g><use transform="matrix(0.0068359375,0,0,0.0068359375,0,0)" xlink:href="#am" id="V"/><g id="W"><use transform="matrix(0.0068359375,0,0,0.0068359375,0,0)" xlink:href="#an"/><use transform="matrix(0.0068359375,0,0,0.0068359375,10.2265625,0)" xlink:href="#ao"/><use transform="matrix(0.0068359375,0,0,0.0068359375,19.236328125,0)" xlink:href="#ap"/></g><g id="X"><use transform="matrix(0.0068359375,0,0,0.0068359375,0,0)" xlink:href="#aH"/><use transform="matrix(0.0068359375,0,0,0.0068359375,8.572265625,0)" xlink:href="#ax"/><use transform="matrix(0.0068359375,0,0,0.0068359375,13.6103515625,0)" xlink:href="#aw"/><use transform="matrix(0.0068359375,0,0,0.0068359375,22.0048828125,0)" xlink:href="#aE"/><use transform="matrix(0.0068359375,0,0,0.0068359375,30.0029296875,0)" xlink:href="#au"/><use transform="matrix(0.0068359375,0,0,0.0068359375,38.1650390625,0)" xlink:href="#aC"/><use transform="matrix(0.0068359375,0,0,0.0068359375,45.5546875,0)" xlink:href="#aC"/></g><g id="Y"><use transform="matrix(0.0068359375,0,0,0.0068359375,0,0)" xlink:href="#aq"/><use transform="matrix(0.0068359375,0,0,0.0068359375,8.4150390625,0)" xlink:href="#ar"/><use transform="matrix(0.0068359375,0,0,0.0068359375,16.6865234375,0)" xlink:href="#as"/><use transform="matrix(0.0068359375,0,0,0.0068359375,25.2724609375,0)" xlink:href="#at"/><use transform="matrix(0.0068359375,0,0,0.0068359375,28.6630859375,0)" xlink:href="#ar"/><use transform="matrix(0.0068359375,0,0,0.0068359375,36.9345703125,0)" xlink:href="#au"/></g><g id="Z"><use transform="matrix(0.0068359375,0,0,0.0068359375,0,0)" xlink:href="#aK"/><use transform="matrix(0.0068359375,0,0,0.0068359375,8.94140625,0)" xlink:href="#ax"/><use transform="matrix(0.0068359375,0,0,0.0068359375,13.9794921875,0)" xlink:href="#aw"/><use transform="matrix(0.0068359375,0,0,0.0068359375,22.3740234375,0)" xlink:href="#aE"/><use transform="matrix(0.0068359375,0,0,0.0068359375,30.3720703125,0)" xlink:href="#au"/><use transform="matrix(0.0068359375,0,0,0.0068359375,38.5341796875,0)" xlink:href="#aC"/><use transform="matrix(0.0068359375,0,0,0.0068359375,45.923828125,0)" xlink:href="#aC"/></g><g id="aa"><use transform="matrix(0.0068359375,0,0,0.0068359375,0,0)" xlink:href="#aI"/><use transform="matrix(0.0068359375,0,0,0.0068359375,10.103515625,0)" xlink:href="#au"/><use transform="matrix(0.0068359375,0,0,0.0068359375,18.265625,0)" xlink:href="#aE"/><use transform="matrix(0.0068359375,0,0,0.0068359375,26.263671875,0)" xlink:href="#at"/><use transform="matrix(0.0068359375,0,0,0.0068359375,29.654296875,0)" xlink:href="#aC"/><use transform="matrix(0.0068359375,0,0,0.0068359375,37.0439453125,0)" xlink:href="#at"/><use transform="matrix(0.0068359375,0,0,0.0068359375,40.4345703125,0)" xlink:href="#aw"/><use transform="matrix(0.0068359375,0,0,0.0068359375,48.8291015625,0)" xlink:href="#ar"/></g><g id="ab"><use transform="matrix(0.0068359375,0,0,0.0068359375,0,0)" xlink:href="#aK"/><use transform="matrix(0.0068359375,0,0,0.0068359375,8.94140625,0)" xlink:href="#ak"/><use transform="matrix(0.0068359375,0,0,0.0068359375,16.802734375,0)" xlink:href="#aC"/><use transform="matrix(0.0068359375,0,0,0.0068359375,24.1923828125,0)" xlink:href="#aC"/></g><use transform="matrix(0.0068359375,0,0,0.0068359375,0,0)" xlink:href="#bc" id="ac"/><g id="ad"><use transform="matrix(0.0068359375,0,0,0.0068359375,0,0)" xlink:href="#aq"/><use transform="matrix(0.0068359375,0,0,0.0068359375,8.4150390625,0)" xlink:href="#ar"/><use transform="matrix(0.0068359375,0,0,0.0068359375,16.6865234375,0)" xlink:href="#aF"/><use transform="matrix(0.0068359375,0,0,0.0068359375,25.2587890625,0)" xlink:href="#at"/><use transform="matrix(0.0068359375,0,0,0.0068359375,28.6494140625,0)" xlink:href="#ar"/><use transform="matrix(0.0068359375,0,0,0.0068359375,36.9208984375,0)" xlink:href="#as"/></g><g id="ae"><use transform="matrix(0.0068359375,0,0,0.0068359375,0,0)" xlink:href="#aI"/><use transform="matrix(0.0068359375,0,0,0.0068359375,10.103515625,0)" xlink:href="#au"/><use transform="matrix(0.0068359375,0,0,0.0068359375,18.265625,0)" xlink:href="#aE"/><use transform="matrix(0.0068359375,0,0,0.0068359375,26.263671875,0)" xlink:href="#aD"/><use transform="matrix(0.0068359375,0,0,0.0068359375,29.654296875,0)" xlink:href="#at"/><use transform="matrix(0.0068359375,0,0,0.0068359375,33.044921875,0)" xlink:href="#ar"/><use transform="matrix(0.0068359375,0,0,0.0068359375,41.31640625,0)" xlink:href="#au"/></g><g id="af"><use transform="matrix(0.0068359375,0,0,0.0068359375,0,0)" xlink:href="#aG"/><use transform="matrix(0.0068359375,0,0,0.0068359375,10.41796875,0)" xlink:href="#ar"/><use transform="matrix(0.0068359375,0,0,0.0068359375,18.689453125,0)" xlink:href="#aj"/><use transform="matrix(0.0068359375,0,0,0.0068359375,23.26953125,0)" xlink:href="#at"/><use transform="matrix(0.0068359375,0,0,0.0068359375,26.66015625,0)" xlink:href="#aj"/><use transform="matrix(0.0068359375,0,0,0.0068359375,31.240234375,0)" xlink:href="#aD"/><use transform="matrix(0.0068359375,0,0,0.0068359375,34.630859375,0)" xlink:href="#au"/><use transform="matrix(0.0068359375,0,0,0.0068359375,42.79296875,0)" xlink:href="#aF"/></g><path d="M158 0v-1490h180v865h22l478-493h223L593-638 1096 0H865L456-523 338-412V0H158" id="bA"/><g id="ag"><use transform="matrix(0.0068359375,0,0,0.0068359375,0,0)" xlink:href="#bA"/><use transform="matrix(0.0068359375,0,0,0.0068359375,7.369140625,0)" xlink:href="#au"/><use transform="matrix(0.0068359375,0,0,0.0068359375,15.2578125,0)" xlink:href="#aL"/></g><g id="ah"><use transform="matrix(0.0068359375,0,0,0.0068359375,0,0)" xlink:href="#at"/><use transform="matrix(0.0068359375,0,0,0.0068359375,3.390625,0)" xlink:href="#aj"/><use transform="matrix(0.0068359375,0,0,0.0068359375,7.833984375,0)" xlink:href="#au"/><use transform="matrix(0.0068359375,0,0,0.0068359375,15.99609375,0)" xlink:href="#aB"/></g></defs></g></svg>